<?xml version="1.0" standalone="no"?>
<!DOCTYPE svg PUBLIC "-//W3C//DTD SVG 20010904//EN"
 "http://www.w3.org/TR/2001/REC-SVG-20010904/DTD/svg10.dtd">
<svg version="1.0" xmlns="http://www.w3.org/2000/svg"
 width="256.000000pt" height="256.000000pt" viewBox="0 0 256.000000 256.000000"
 preserveAspectRatio="xMidYMid meet">

<g transform="translate(0.000000,256.000000) scale(0.100000,-0.100000)"
fill="#000000" stroke="none">
<path d="M595 1783 c-11 -3 -23 -8 -27 -12 -4 -3 155 -87 352 -186 l360 -180
221 110 c121 61 223 113 225 117 3 4 -21 8 -53 8 -160 -1 -229 5 -256 23 -14
9 -37 17 -51 17 -13 0 -26 6 -28 12 -3 9 -36 13 -109 14 -57 1 -112 5 -122 9
-10 4 -21 5 -24 1 -3 -3 -12 -1 -19 5 -7 6 -58 12 -113 14 -54 1 -104 6 -110
9 -6 4 -20 4 -32 1 -11 -4 -26 -2 -33 4 -10 8 -152 44 -159 40 -1 -1 -11 -3
-22 -6z"/>
<path d="M145 1669 c-20 -21 -43 -39 -50 -39 -8 0 -17 -9 -20 -20 -4 -12 -14
-19 -23 -18 -14 2 -17 -6 -17 -44 0 -35 -5 -51 -19 -61 -12 -9 -17 -20 -13
-31 7 -18 64 -46 93 -46 10 0 26 -7 36 -17 15 -13 23 -14 44 -5 13 7 60 12
103 12 95 0 115 -15 120 -95 1 -6 15 -19 31 -28 17 -10 39 -35 50 -56 20 -41
40 -54 65 -45 19 8 75 -14 76 -30 1 -6 0 -26 -1 -44 l-2 -33 206 103 c113 57
206 105 206 109 0 6 -774 400 -821 418 -23 8 -30 5 -64 -30z"/>
<path d="M1713 1377 c-101 -50 -183 -95 -183 -98 0 -7 432 -219 448 -219 7 0
28 -11 45 -24 49 -36 112 -66 144 -66 15 0 53 3 83 8 40 7 63 5 87 -4 30 -13
33 -12 44 7 8 15 13 18 19 10 5 -10 17 -10 51 -1 24 7 50 17 56 22 7 6 19 8
28 5 8 -4 17 -2 21 4 8 14 -14 37 -39 41 -15 2 -21 9 -19 21 2 9 -8 32 -21 50
-14 17 -28 46 -31 63 -4 18 -16 40 -27 50 -10 9 -19 23 -19 29 0 39 -97 93
-153 86 -9 -1 -20 4 -23 13 -4 10 -21 14 -61 14 -42 -1 -58 4 -65 16 -6 10
-22 16 -47 16 -27 0 -43 7 -59 25 -39 44 -76 35 -279 -68z"/>
<path d="M1100 1066 l-165 -84 37 -18 c31 -14 42 -15 63 -6 66 30 131 5 232
-87 91 -85 135 -105 171 -82 12 7 12 12 0 30 -7 12 -20 21 -28 20 -20 -2 -60
12 -60 20 0 3 14 19 30 35 16 15 32 41 35 56 3 15 14 35 23 43 19 17 68 32 92
29 8 -1 -41 27 -110 62 -69 36 -132 65 -140 65 -8 0 -89 -38 -180 -83z"/>
<path d="M1558 1009 c6 -7 12 -21 12 -31 0 -10 8 -19 18 -19 9 -1 24 -2 32 -3
8 -1 20 -4 25 -8 6 -4 16 -3 23 1 7 4 -15 20 -56 40 -37 18 -61 27 -54 20z"/>
</g>
</svg>
